<svg xmlns="http://www.w3.org/2000/svg" height="246" width="939" viewBox="-0.858776330947876 -6.688253879547119 232.9567530155182 61.030203342437744" style=""><defs><clipPath id="g" clipPathUnits="userSpaceOnUse"><path d="M0 0h841.89v595.276H0z"/></clipPath><clipPath id="f" clipPathUnits="userSpaceOnUse"><path d="M0 0h841.89v595.276H0z"/></clipPath><clipPath id="e" clipPathUnits="userSpaceOnUse"><path d="M0 0h841.89v595.276H0z"/></clipPath><clipPath id="d" clipPathUnits="userSpaceOnUse"><path d="M0 0h841.89v595.276H0z"/></clipPath><clipPath id="c" clipPathUnits="userSpaceOnUse"><path d="M0 0h841.89v595.276H0z"/></clipPath><clipPath id="b" clipPathUnits="userSpaceOnUse"><path d="M0 0h841.89v595.276H0z"/></clipPath><clipPath id="a" clipPathUnits="userSpaceOnUse"><path d="M0 0h841.89v595.276H0z"/></clipPath></defs><g clip-path="url(#a)" transform="matrix(.99563 0 0 -.99563 -276.4563 413.1715)"><path d="M289.4212 382.8705c-1.302 1.504-2.971 1.055-2.971 1.055s.575-.491.943-1.488c.365-.998.365-1.567.365-1.567s-.733.225-2.171-.294c-1.5-.547-1.45-2.215-1.45-2.215s1.308 1.128 3.017.396c1.467-.63 2.042-2.602 2.042-2.602s.086.753.339 1.224c.281.523.66.892.983 1.844.3.888.2 2.146-1.097 3.647" fill="#e69f0a"/><path d="M285.4377 383.0992c-.271 1.269-.016 1.731-.016 1.731s1.179.869 2.774.197c1.283-.544 1.576-1.747 1.576-1.747s.884.732.982 1.846c.102 1.114-.435 1.868-1.066 2.421-.635.551-1.93 1.098-1.93 1.098s.934.506 1.201 1.029c.104.207.17.41.231.611.097.314.183.622.389.927.336.502 1.163.97 1.163.97s-1.309.532-2.645-.045c-1.338-.575-1.673-1.137-3.168-1.743-.095-.04-.189-.074-.28-.106h-.008c-1.596-.535-2.703-.01-2.703-.01s.569-.614.569-2.236c0-1.622-.122-2.922.589-4.394.876-1.822 2.932-2.129 2.932-2.129s-.319.307-.59 1.58m11.3073-10.5575c-.775.887-1.218 2.49-2.155 4.149-1.474 2.606-3.31 3.182-3.31 3.182s.53-1.285-.027-2.352c-.755-1.432-1.381-.857-1.381-.857s.02-1.056.965-1.594c1.431-.821 2.329.237 2.329.237s-.102-1.423 1.306-2.479c1.256-.939 2.233-.928 2.844-1.117.372-.12.729-.278.729-.278s-.524.217-1.3 1.109m-15.4198 33.831c.606.536 1.144.527 1.144.527s-.44.264-.837 1.276c-.395 1.012-.13 1.737-.13 1.737s-.795-.7-1.147-2.044c-.351-1.344.288-2.71.288-2.71s.088.684.682 1.214" fill="#e69f0a"/><path d="M282.844 408.9265c.344-.985.396-1.631.419-2.179.016-.42.242-.771.242-.771s-1.395-.157-1.83-.86c-.7-1.144.043-2.289.043-2.289s.2.837 1.126 1.013c.509.097 1.409.069 2.355-.771 1.189-1.059 2.751-1.123 2.751-1.123s-.377.992-.091 2.025c.285 1.034.598 1.386 1.258 2.425.662 1.029.593 1.429.525 2.132-.064.695-.461 1.43-.461 1.43s-.22-.746-.833-1.078c-.619-.331-1.058-.64-1.562-1.08-.509-.438-.598-1.032-.598-1.032s-.132 1.343-.791 2.135c-.662.79-1.486 1.623-2.264 1.825-1.191.308-1.677.088-1.677.088s.925-.573 1.388-1.89m6.7113-3.4145c-.07-.706 0-1.561-.153-2.596-.156-1.036-1.102-1.63-1.102-1.63s1.608-.461 2.509.991c.686 1.102.134 2.442-.288 3.126-.416.683-.352 1.756-.352 1.756s-.549-.942-.614-1.647m-10.2641-4.2658c.599.929 1.783.65 1.783.65s-1.477 2.387-2.929.464c-1.693-2.242 1.675-3.896 1.675-3.896s-1.294 1.604-.529 2.782m7.9469-4.7571c-1.651.07-2.4-3.355-1.925-5.219 1.811 3.74 5.497 3.02 5.497 3.02s-1.943 2.13-3.572 2.199" fill="#e69f0a"/><path d="M282.9738 391.8223c.641-.75 1.52-.991 1.52-.991s-.616 2.379.092 4.404c.704 2.023 2.306 2.862 3.299 3.103.99.243 1.321.243 1.936.527.479.225.649.547.902 1.013-.637-.088-1.081-.066-1.762.197-.681.265-1.318.619-2.573 1.473-1.257.86-1.741.889-2.926.992-1.015.087-1.453-.394-1.453-.394s.779-.347 1.124-.902c.527-.86.196-1.697.196-1.697s-.53.265-1.233.374c-.706.111-1.125.015-1.541.092-.375.062-.506.371-.506.371s-.22-.769.265-1.918c.483-1.142 1.142-1.231 1.142-1.231s-1.761-.281-2.201-2c-.593-2.334 1.235-3.763 1.235-3.763s.112 1.168.681 1.408c.571.24 1.276.683 1.276.683s-.11-.991.527-1.741" fill="#e69f0a"/><path d="M311.7907 387.8287v9.288h-19.212v-9.288s-.639-11.415 9.604-16.523c10.247 5.108 9.608 16.523 9.608 16.523m-23.3124-14.7069c.107.251.362.43.654.43.122 0 .224-.034.328-.085.307-.166.885-.537 1.413-.657.614-.145.98-.033 1.016.139.042.177-.626.86-1.355.982-.732.118-1.83.146-3.322-.117-1.493-.261-2.042.034-2.144.263-.104.23.023.309.106.48-.21-.015-.363-.101-.46-.287-.27-.522-.441-1.141-.428-2.333.014-1.193.063-2.155.755-2.31.692-.152 1.199.328 1.698.402.499.08.681-.163.681-.163zm27.4017 0c-.11.251-.364.43-.658.43-.119 0-.219-.034-.327-.085-.305-.166-.881-.537-1.412-.657-.616-.145-.98-.033-1.018.139-.041.177.627.86 1.357.982.729.118 1.831.146 3.324-.117 1.489-.261 2.04.034 2.144.263.103.23-.028.309-.109.48.212-.015.363-.101.463-.287.267-.522.441-1.141.425-2.333-.01-1.193-.061-2.155-.754-2.31-.691-.152-1.197.328-1.696.402-.498.08-.682-.163-.682-.163z" fill="#18468b"/><path d="M316.7483 368.5317c-3.448-2.386-8.691-3.902-14.565-3.902-5.864 0-11.109 1.515-14.546 3.893-.078.054-.126.142-.126.245 0 .035.004.071.016.103l1.328 4.083c.044.107.154.181.277.181.078 0 .15-.032.211-.086 2.05-2.162 7.025-3.685 12.84-3.685 5.845 0 10.846 1.542 12.889 3.721.054.05.127.073.205.073.125 0 .205-.08.256-.195 0 0 1.342-4.087 1.348-4.087a.2603.2603 0 00.024-.106c0-.108-.07-.189-.157-.238m-16.0853 45.2046c.082-.12.216-.12.301 0l.855 1.009c.081.115.032.214-.112.214h-1.813c-.145 0-.192-.099-.11-.212zm3.588-.075c.115 0 .285.091.384.204l.778.912c.096.115.084.207-.03.207h-1.609c-.114 0-.29-.092-.383-.207l-.779-.912c-.1-.113-.085-.204.029-.204zm7.449 0c.111 0 .284.091.38.204l.78.912c.093.115.083.207-.032.207h-.727c-.115 0-.288-.092-.384-.207l-.781-.912c-.094-.113-.082-.204.032-.204zm1.687 0c-.229 0-.107.183.058.402l.541.611c.167.166.486.299.713.299h.745c.226 0 .219-.176-.007-.4-.896-.875-2.05-.912-2.05-.912m-4.053 0c.114 0 .286.091.381.204l.779.912c.1.115.085.207-.03.207h-.728c-.113 0-.283-.092-.381-.207l-.779-.912c-.098-.113-.086-.204.028-.204zm-2.389 0c.113 0 .284.091.383.204l.778.912c.098.115.081.207-.031.207h-1.004c-.113 0-.285-.092-.384-.207l-.778-.912c-.095-.113-.083-.204.029-.204zm-9.191-.031c-.116 0-.287.093-.383.206l-.782.911c-.097.113-.084.207.03.207h1.61c.118 0 .287-.094.384-.207l.778-.911c.099-.113.087-.206-.027-.206zm-5.083 0c-.113 0-.287.093-.386.206l-.779.911c-.096.113-.08.207.031.207h.731c.112 0 .285-.094.382-.207l.778-.911c.099-.113.083-.206-.029-.206zm2.39 0c-.113 0-.288.093-.383.206l-.78.911c-.097.113-.083.207.03.207h1.005c.111 0 .285-.094.381-.207l.78-.911c.098-.113.085-.206-.033-.206zm-4.082 0c.226 0 .108.181-.055.401l-.546.612c-.164.164-.486.297-.712.297h-.742c-.225 0-.22-.171.008-.401.892-.872 2.047-.909 2.047-.909" fill="#18468b"/><path d="M308.1059 405.3122c-.004.167-.012.32-.028.435-.238 2.562-.877 4.865-2.17 6.976-.066.197-.258.264-.457.134-.122 0-.133-.11-.084-.23 0 0 .447-.586.623-.888.266-.456.438-.965.423-1.518.003-.198-.018-.388-.058-.583-.262-1.236-1.289-2.258-2.423-2.792a4.6022 4.6022 0 00-.989-.243c-.716-.089-1.505-.038-2.055.425-.178.137-.329.3-.453.486-.217.351-.339.816-.3 1.261.007.151.046.357.171.458l.029.043c.442.606.578-.553 1.68-.732.176-.034.365-.04.553-.004.176.067.339.185.473.34.158.17.265.369.312.573.033.144.035.287.014.431-.057.257-.195.472-.393.635-.571.483-1.501.831-1.801 1.549-.058.207-.062.378-.011.55.05.172.166.357.276.534.028.044.511.615.518.615l.885 1.015c.07.266-.259.2-.326.137-.663-.653-.999-1.503-1.788-1.956-.989-.319-1.911-.639-2.639-1.548-1.124-.782-2.244-1.622-3.432-2.203-.133-.262-.071-.59-.007-.855.589-.397 1.374-.406 2.092-.608.327-.461.387-1.184.25-1.709.455-.134 1.564.778 1.915 1.559.526-.07.979-.599 1.042-1.125.038-.43-.06-.819-.229-1.162-.528-1.054-1.749-1.677-1.749-1.677.495-.203.86-.586 1.028-.633.176-.047.727 1.144.961 1.198.294.069 1.329-.745 1.554-.745.188 0 .87.965 1.164.948.333-.021 1.027-1.149 1.255-1.182.156-.017 1.198.993 1.53.957.239-.026.682-.913.86-.984.19-.066.536.454 1.797.691 0 0 .011.821-.013 1.427" fill="#18468b"/><path d="M301.8153 413.2228c-.088-.057-.129-.109-.197-.185-.134-.164-.213-.341-.251-.478-.036-.129-.036-.258.006-.412.266-.629 1.216-1.024 1.737-1.464.231-.189.399-.451.464-.758.027-.169.025-.348-.013-.519a1.4542 1.4542 0 00-.364-.672c-.156-.184-.348-.319-.564-.396-.236-.047-.45-.043-.654-.008-.569.095-1.02.467-1.414.889-.045-.051-.07-.087-.092-.12l-.031-.031c-.063-.043-.09-.234-.094-.303-.037-.402.076-.824.268-1.135.109-.167.244-.312.405-.435.476-.41 1.195-.465 1.898-.378.323.039.642.123.931.226 1.09.519 2.053 1.49 2.293 2.643.04.177.058.359.058.534.013.506-.144.974-.392 1.406-.187.315-.379.574-.686.882-.146.148-.287.245-.396.354.134.263.463.194.594.39-1.048.139-3.181.089-3.181.089-.134-.016-.211-.041-.325-.119m-.173-5.824c-.03-.013-.064-.025-.105-.01.041.014.057.068.048.115.009.02.039.011.066-.011.028-.055.012-.077-.009-.094m.729-.165c-.05-.046-.104-.09-.19-.09.063.052.061.167.009.255.009.039.07.039.134.02.032-.008.045-.013.051-.03.035-.059.022-.11-.004-.155m.662-.048c.072.125-.005.307-.148.412-.01.067.082.108.207.124.055.007.08 0 .103-.016.089-.073.099-.165.086-.257-.048-.105-.109-.213-.248-.263m.952.29c.017.189-.132.411-.305.508-.042.087.032.17.145.225.052.021.071.025.102.012.115-.075.164-.195.186-.322 0-.153-.021-.312-.128-.423m.296 1.034c-.092.065-.085.196-.03.309.03.051.049.067.083.067.146-.011.268-.111.369-.227.106-.167.197-.343.178-.517-.109.203-.384.357-.6.368m.389.722c-.138.013-.209.159-.213.315-.002.076.01.1.043.12.166.077.357.039.54-.028.207-.115.41-.248.495-.451-.241.155-.627.16-.865.044m1.176.934c-.342.162-.85.099-1.138-.098-.187-.004-.305.17-.337.376-.018.099-.009.131.036.168.203.125.458.111.707.058.293-.114.587-.255.732-.504m-.232.975c-.463.169-.987.176-1.345-.132-.242-.023-.444.136-.595.304-.042.061-.034.175.018.23.254.198.591.216.922.178.389-.116.79-.266 1-.58m-3.317 1.285c.328.259.791.321 1.248.318.554-.087 1.114-.21 1.438-.538-.653.136-1.375.076-1.838-.31-.329-.065-.625.094-.849.269-.069.064-.068.198.001.261" fill="#18468b"/></g><path d="M31.0986 31.3155l-4.1309-.3146 1.575 3.8312-3.158-2.6793-.9778 4.0234-.9787-4.0234-3.1591 2.6793 1.578-3.8312-4.1308.3146 3.5255-2.1755-3.5255-2.1744 4.1309.3126-1.5781-3.8302 3.1591 2.6832.9787-4.0283.9777 4.0283 3.1582-2.6832-1.5751 3.8302 4.1309-.3126L27.574 29.14z" fill="#fff"/><g clip-path="url(#b)" transform="matrix(.99563 0 0 -.99563 -276.4563 413.1715)"><path d="M310.8305 387.7834s.19-2.79-1.411-6.042c1.127 3.282.974 6.07.974 6.07v7.947h-16.423v-7.947s-.15-2.788.978-6.07c-1.602 3.252-1.412 6.042-1.412 6.042v8.365h17.294z" fill="#fff"/><path d="M313.2182 377.5206c-.561 1.067-.026 2.352-.026 2.352s-1.836-.576-3.311-3.182c-.936-1.659-1.38-3.262-2.155-4.149-.776-.891-1.302-1.108-1.302-1.108s.357.157.73.277c.612.189 1.589.178 2.843 1.118 1.408 1.055 1.306 2.478 1.306 2.478s.898-1.058 2.333-.236c.942.538.966 1.593.966 1.593s-.628-.574-1.384.857m6.6128 12.7677h-.008c-.094.032-.185.066-.282.106-1.493.606-1.832 1.168-3.169 1.743-1.336.576-2.643.045-2.643.045s.826-.468 1.163-.97c.207-.305.291-.613.388-.927.062-.201.128-.404.232-.611.265-.523 1.2-1.029 1.2-1.029s-1.295-.547-1.927-1.098c-.634-.553-1.174-1.307-1.072-2.421.1-1.114.986-1.847.986-1.847s.293 1.204 1.574 1.748c1.595.672 2.776-.197 2.776-.197s.254-.462-.016-1.731c-.271-1.273-.59-1.58-.59-1.58s2.057.307 2.932 2.128c.712 1.473.59 2.773.59 4.395 0 1.622.567 2.235.567 2.235s-1.107-.525-2.701.011" fill="#e69f0a"/><path d="M318.8832 380.5767c-1.439.519-2.171.293-2.171.293s0 .57.366 1.568c.366.997.94 1.487.94 1.487s-1.668.45-2.969-1.054c-1.3-1.501-1.4-2.76-1.1-3.647.325-.952.706-1.321.986-1.845.252-.47.342-1.223.342-1.223s.574 1.972 2.038 2.601c1.71.732 3.018-.395 3.018-.395s.051 1.668-1.45 2.215m4.0844 29.3361s.265-.725-.131-1.737c-.395-1.012-.836-1.276-.836-1.276s.537.009 1.145-.527c.592-.53.683-1.215.683-1.215s.638 1.366.284 2.71c-.352 1.344-1.145 2.045-1.145 2.045" fill="#e69f0a"/><path d="M316.6111 403.9713c.288-1.033-.093-2.025-.093-2.025s1.564.064 2.753 1.124c.946.839 1.846.867 2.355.77.924-.176 1.125-1.013 1.125-1.013s.747 1.145.041 2.289c-.435.703-1.827.86-1.827.86s.226.351.242.771c.024.548.076 1.194.419 2.179.462 1.317 1.388 1.89 1.388 1.89s-.487.22-1.673-.088c-.784-.202-1.61-1.035-2.269-1.825-.66-.792-.792-2.135-.792-2.135s-.089.594-.597 1.032c-.505.44-.943.749-1.561 1.08-.616.332-.835 1.078-.835 1.078s-.395-.734-.462-1.429c-.067-.704-.133-1.104.528-2.133.661-1.039.972-1.391 1.258-2.425m-.4396-2.6853s-.948.594-1.103 1.63c-.152 1.036-.086 1.89-.152 2.596-.07.705-.614 1.647-.614 1.647s.06-1.073-.355-1.756c-.419-.684-.972-2.024-.285-3.126.902-1.452 2.509-.991 2.509-.991m2.9865-10.0159c.476 1.864-.275 5.289-1.925 5.219-1.632-.069-3.574-2.199-3.574-2.199s3.689.72 5.499-3.02m7.1638 11.0903c-1.454 1.923-2.926-.465-2.926-.465s1.184.279 1.779-.649c.77-1.179-.525-2.782-.525-2.782s3.366 1.654 1.672 3.896" fill="#e69f0a"/><path d="M323.0138 397.2356s.662.089 1.142 1.231c.486 1.149.265 1.918.265 1.918s-.133-.309-.507-.371c-.415-.078-.835.019-1.538-.092-.706-.11-1.236-.374-1.236-.374s-.326.837.201 1.697c.343.555 1.123.902 1.123.902s-.442.48-1.455.393c-1.184-.103-1.673-.131-2.926-.992-1.253-.853-1.891-1.207-2.577-1.472-.681-.264-1.122-.285-1.76-.197.256-.466.424-.788.903-1.013.618-.284.948-.284 1.936-.527.992-.241 2.599-1.08 3.303-3.104.705-2.024.088-4.404.088-4.404s.881.242 1.518.992c.639.749.528 1.74.528 1.74s.704-.443 1.278-.682c.571-.241.678-1.408.678-1.408s1.83 1.429 1.236 3.762c-.436 1.72-2.2 2.001-2.2 2.001m-12.6634 5.4732c-.191.234-2.177-.829-2.177-.829s-.033 1.063-.293 1.263c-.79-.062-1.387-.456-1.92-.976h.002c-.208.586-.527 1.111-.677 1.121-.289.02-1.486-1.064-1.486-1.064s-.711 1.272-1.098 1.309c-.166.015-.788-.67-1.117-1.101-.39.399-1.228 1.023-1.534.956-.183-.038-.572-.862-.826-1.457-.214.216-1.315 1.064-1.868 1.154-.265-.389-.273-1.445-.273-1.445s-1.122 1.033-1.895 1.136c-.2-.261.158-1.743.964-2.44-.026.21-.385.925-.316 1.383.396.196 1.339-.364 1.339-.364s.172.746.57.938c.59-.069 1.57-.734 1.57-.734s.463.848.86 1.107c.591.126 1.44-.603 1.44-.603s.624.736 1.086.733c.454-.201 1.044-.902 1.044-.902s.882.593 1.416.757c.317-.161.696-.922.696-.922s1.111.734 1.698.663c.199-.197.393-.826.393-.826s1.216.452 1.737.428c-.076-.643-.402-1.113-.669-1.634.614.32 1.676 1.933 1.334 2.349" fill="#e69f0a"/><path d="M302.5167 400.0857c.457-.068.702 1.837.175 1.917-.447.067-.619-1.851-.175-1.917m1.7651-.0341c.479-.193 1.167 1.58.678 1.771-.425.167-1.09-1.598-.678-1.771m-4.048 1.5636c-.005-.656.365-1.668.706-1.581.238.063.146 1.508-.378 1.839-.196.07-.328-.127-.328-.258m5.8589-1.6114c.392-.252 1.502 1.318 1.015 1.607-.347.212-1.468-1.321-1.015-1.607m-8.1593 1.4986c-.071-.654.583-1.651.908-1.516.206.086-.12 1.443-.71 1.645-.128.067-.198-.062-.198-.129m9.8341-1.3949c.317-.245 1.123.83.926 1.041-.238.257-1.175-.851-.926-1.041m-10.6352-.1716c.299.161-.225 1.189-.513 1.055-.233-.108.247-1.201.513-1.055" fill="#e69f0a"/><path d="M301.2644 399.5701c-.132 0-.203-.083-.161-.184l.479-1.16c.04-.1.183-.186.312-.186h1.925c.131 0 .204.086.166.186l-.481 1.16c-.044.101-.183.184-.313.184zm3.075-.214c-.095 0-.147-.06-.117-.134l.344-.835c.032-.073.134-.129.228-.129h1.387c.092 0 .147.056.115.129l-.344.835c-.03.074-.129.134-.227.134zm2.3167-.0921c-.067 0-.104-.042-.082-.092l.244-.587c.021-.048.091-.092.157-.092h.97c.066 0 .104.044.082.092l-.241.587c-.02.05-.094.092-.159.092zm1.738-.0557c-.048 0-.074-.026-.058-.064l.169-.409c.015-.035.065-.066.111-.066h.679c.045 0 .071.031.056.066l-.167.409c-.015.038-.065.064-.111.064zm-7.5944-.9506c.095 0 .148.057.119.13l-.345.834c-.027.074-.131.134-.225.134h-1.386c-.096 0-.146-.06-.119-.134l.347-.834c.031-.073.13-.13.226-.13zm-2.3138.0899c.063 0 .099.041.08.092l-.241.586c-.021.052-.092.094-.16.094h-.968c-.066 0-.102-.042-.083-.094l.239-.586c.025-.051.093-.092.162-.092zm-1.738.0536c.044 0 .075.031.056.065l-.166.411c-.014.035-.066.065-.114.065h-.676c-.048 0-.074-.03-.06-.065l.169-.411c.017-.034.066-.065.112-.065z" fill="#18468b"/></g><path d="M24.3978 29.1362l.6252-1.9574-.6113-3.7177z" fill="#a6700e"/><path d="M23.7535 27.1864l.6432 1.9494.016-5.674z" fill="#e69f0a"/><path d="M23.7911 31.1058l.6133 3.7068-.008-5.6761z" fill="#a6700e"/><path d="M24.404 34.8128l.6582-3.7226-.6651-1.9535z" fill="#e69f0a"/><path d="M21.0757 24.5432l2.6783 2.6434.6432 1.9495z" fill="#a6700e"/><path d="M22.7332 27.9449l-1.6578-3.402 3.3215 4.5938z" fill="#e69f0a"/><path d="M27.7419 33.7327l-2.6802-2.6424-.6651-1.9534z" fill="#a6700e"/><path d="M26.086 30.3332l1.6557 3.399-3.3443-4.5958z" fill="#e69f0a"/><path d="M19.0106 27.3772l3.7227.5675 1.6637 1.1917z" fill="#a6700e"/><path d="M22.3505 29.1364L19.01 27.3772l5.3874 1.7592z" fill="#e69f0a"/><path d="M29.805 30.9l-3.7187-.5665-1.6896-1.1967z" fill="#a6700e"/><path d="M26.4652 29.1364l3.3394 1.7633-5.4073-1.7633z" fill="#e69f0a"/><path d="M19.0068 30.8906l3.3434-1.7543h2.047z" fill="#a6700e"/><path d="M22.7534 30.364l-3.7466.5266 5.3904-1.7543z" fill="#e69f0a"/><path d="M29.806 27.3881l-3.3404 1.7483h-2.069z" fill="#a6700e"/><path d="M26.0588 27.9166l3.7475-.5287-5.4092 1.7483z" fill="#e69f0a"/><path d="M21.0659 33.7274l1.6876-3.3632 1.6438-1.2276z" fill="#a6700e"/><path d="M23.7913 31.1057l-2.725 2.6215 3.3304-4.5909z" fill="#e69f0a"/><path d="M27.7479 24.5505l-1.6896 3.3662-1.6617 1.2196z" fill="#a6700e"/><path d="M25.0235 27.1785l2.724-2.6284-3.3502 4.5858z" fill="#e69f0a"/><g clip-path="url(#c)" transform="matrix(.99563 0 0 -.99563 -276.4563 413.1715)"><path d="M334.1828 410.4249h-.03l-.322-5.479c-.059-1.015-.044-1.508 1.202-1.523v-.6h-3.254v.6c1.143.015 1.172.354 1.246 1.631l.322 5.571c.044.785 0 1.123-.982 1.17v.6h3.093l2.858-6.464 2.742 6.464h3.151v-.6c-1.056-.062-1.129-.062-1.056-1.17l.352-5.679c.074-1.292.118-1.431 1.29-1.523v-.6h-4.617v.6h.249c.616 0 1.129 0 1.129 1 0 .246-.015.493-.03.724l-.337 5.463h-.029l-3.283-7.787h-.352zm15.2738-4.0481l-.615-1.8c-.264-.785-.25-1.154 1.158-1.154h.19v-.6h-3.884v.6h.22c.703 0 1.07.338 1.436 1.416l2.507 7.34-.161.447h2.169l2.932-7.818c.38-1.016.703-1.324 1.465-1.385v-.6h-4.763v.6h.512c.895 0 1.026.415.733 1.17l-.688 1.784zm1.525 4.448l-1.232-3.601h2.58zm7.4027-5.1708h.572c.484-1.524 1.348-2.308 2.506-2.308.968 0 1.701.646 1.701 1.508 0 2.293-4.706 2.216-4.706 5.263 0 1.477 1.231 2.508 2.976 2.508 1.129 0 2.008-.4 2.228-.4.102 0 .19.031.323.17h.308l.278-2.493h-.586c-.323 1.246-1.261 2.062-2.39 2.062-.821 0-1.436-.462-1.436-1.062 0-1.416 2.433-1.678 4.075-3.401.601-.631.835-1.293.835-2.032 0-1.6-1.378-2.862-3.122-2.862-1.173 0-2.243.493-2.506.493-.133 0-.235-.077-.308-.247h-.382zm8.7657 0h.572c.484-1.524 1.349-2.308 2.506-2.308.968 0 1.701.646 1.701 1.508 0 2.293-4.706 2.216-4.706 5.263 0 1.477 1.231 2.508 2.976 2.508 1.129 0 2.008-.4 2.229-.4.102 0 .19.031.321.17h.309l.278-2.493h-.587c-.321 1.246-1.26 2.062-2.389 2.062-.821 0-1.436-.462-1.436-1.062 0-1.416 2.433-1.678 4.075-3.401.601-.631.836-1.293.836-2.032 0-1.6-1.379-2.862-3.123-2.862-1.173 0-2.243.493-2.506.493-.133 0-.235-.077-.308-.247h-.381zm15.1574 5.8941h-3.21v-3.462h2.374c.807 0 1.1.292 1.1 1.108h.586v-3.063h-.586c0 .831-.191 1.108-1.319 1.108h-2.155v-2.77c0-.662.117-.8.542-.8h2.448c.953 0 1.407.277 1.686 1.57h.557l-.176-2.416h-8.825v.599h.602c.85 0 1.143.354 1.143 1.109v6.14c0 .831-.264 1.123-1.275 1.123h-.147v.601h8.077l.146-2.232h-.556c-.147 1.046-.338 1.385-1.012 1.385m9.7628-6.9866c0-.739.22-1.139 1.276-1.139h.22v-.6h-4.999v.6h.366c.88 0 1.114.416 1.114 1.108v2.14l-3.151 4.401c-.425.584-.601.723-1.334.723h-.102v.6h4.778v-.6h-.176c-.85 0-.967-.369-.659-.785l2.345-3.247 1.7 2.801c.381.631.498 1.231-.528 1.231h-.176v.6h3.46v-.6c-.85-.062-1.099-.231-1.627-1.077l-2.507-4.047zm18.7785 7.8332h3.796v-.6h-.102c-1.172 0-1.348-.539-1.348-1.277v-3.832c0-3.432-2.375-4.079-4.119-4.079-2.639 0-4.31 1.201-4.31 3.555v4.586c0 .77-.205 1.047-1.026 1.047h-.249v.6h4.588v-.6h-.25c-.615 0-1.04-.293-1.04-1.047v-4.586c0-1.877 1.319-2.523 2.653-2.523 1.92 0 2.873 1.138 2.873 2.831v3.74c0 1.092-.293 1.585-1.202 1.585h-.264zm7.4176-7.7256c0-.939.279-1.247 1.451-1.247v-.599h-3.547v.599h.088c.894 0 1.114.339 1.114.97v7.064c-.323.231-.718.338-1.173.338v.601h3.02l5.98-6.556v4.647c0 1.108-.22 1.308-1.392 1.308h-.147v.601h3.782v-.601h-.147c-.908 0-1.201-.2-1.201-.785v-8.233h-.807l-7.021 7.71zm10.6132 7.7256h4.662v-.6h-.25c-.791 0-1.114-.354-1.114-1.155v-6.094c0-.753.249-1.123 1.143-1.123h.221v-.6h-4.662v.6h.205c.777 0 1.07.385 1.07 1.062v6.155c0 .801-.264 1.155-1.084 1.155h-.191zm7.8131-1.8928c-.483 1.108-.689 1.293-1.524 1.293h-.103v.6h5.086v-.6h-.249c-1.231 0-1.421-.431-1.011-1.339l2.301-5.14 2.243 5.601c.205.524-.132.878-.968.878h-.293v.6h3.723v-.6h-.102c-.865 0-1.188-.416-1.671-1.632l-3.049-7.556h-.924zm17.0485 1.0462h-3.21v-3.462h2.374c.807 0 1.1.292 1.1 1.108h.586v-3.063h-.586c0 .831-.191 1.108-1.32 1.108h-2.154v-2.77c0-.662.117-.8.542-.8h2.448c.953 0 1.407.277 1.686 1.57h.557l-.176-2.416h-8.825v.599h.602c.85 0 1.143.354 1.143 1.109v6.14c0 .831-.264 1.123-1.275 1.123h-.147v.601h8.077l.146-2.232h-.557c-.146 1.046-.337 1.385-1.011 1.385m7.3002-7.0016c0-.785.323-1.124 1.158-1.124h.439v-.6h-5.13v.6h.235c.894 0 1.275.231 1.275 1.124v6.078c0 .739-.19 1.17-1.173 1.17h-.307v.6c.733.046 1.29.077 1.89.123.821.062 1.877.108 2.405.108 2.154 0 3.327-.292 4.06-1.062.484-.508.703-1.093.703-1.754 0-1.17-.806-2.093-2.169-2.478.967-.846 1.48-2.062 2.521-3.155.601-.631 1.012-.815 1.935-.908v-.6c-.323-.015-.469-.015-.909-.015-1.817 0-2.565.277-3.254 1-.733.77-1.583 2.386-2.521 3.232h-1.158zm0 2.985h.571c1.774 0 2.8.57 2.8 2.216 0 1.631-1.187 2.216-2.609 2.216h-.762zm8.9861-1.8775h.571c.484-1.524 1.349-2.308 2.507-2.308.968 0 1.701.646 1.701 1.508 0 2.293-4.706 2.216-4.706 5.263 0 1.477 1.231 2.508 2.976 2.508 1.128 0 2.008-.4 2.228-.4.103 0 .191.031.322.17h.308l.279-2.493h-.587c-.322 1.246-1.26 2.062-2.389 2.062-.821 0-1.436-.462-1.436-1.062 0-1.416 2.433-1.678 4.075-3.401.6-.631.835-1.293.835-2.032 0-1.6-1.378-2.862-3.122-2.862-1.173 0-2.243.493-2.507.493-.132 0-.234-.077-.308-.247h-.381zm8.2532 6.7407h4.662v-.6h-.25c-.791 0-1.114-.354-1.114-1.155v-6.094c0-.753.249-1.123 1.143-1.123h.221v-.6h-4.662v.6h.205c.777 0 1.071.385 1.071 1.062v6.155c0 .801-.264 1.155-1.085 1.155h-.191zm12.1665-7.8179c0-.8.234-1.154 1.275-1.154h.352v-.6h-5.277v.6h.499c.806 0 1.128.338 1.128 1.154v7.018h-1.729c-1.129 0-1.305-.185-1.584-1.817h-.601l.264 2.879h.47c.117-.108.19-.185.278-.216.102-.031.22-.046.425-.046h6.977c.396 0 .469.031.704.262h.469l.264-2.879h-.601c-.279 1.616-.455 1.817-1.583 1.817h-1.73zm11.5806-.0153c0-.739.22-1.139 1.275-1.139h.22v-.6h-4.998v.6h.366c.879 0 1.114.416 1.114 1.108v2.14l-3.152 4.401c-.424.584-.601.723-1.333.723h-.103v.6h4.779v-.6h-.176c-.851 0-.968-.369-.659-.785l2.345-3.247 1.7 2.801c.381.631.498 1.231-.528 1.231h-.176v.6h3.459v-.6c-.85-.062-1.099-.231-1.626-1.077l-2.507-4.047zm-166.3353-15.0588c0-.552.162-.797.88-.797h.243v-.413h-3.642v.413h.344c.556 0 .779.234.779.797v4.84h-1.194c-.779 0-.9-.126-1.092-1.251h-.415l.182 1.985h.323c.081-.074.132-.128.192-.149.072-.022.153-.032.294-.032h4.816c.273 0 .324.022.485.181h.324l.182-1.985h-.415c-.192 1.115-.313 1.251-1.092 1.251h-1.194zm8.647 4.8094h-2.215v-2.389h1.638c.557 0 .759.202.759.765h.405v-2.114h-.405c0 .573-.131.765-.91.765h-1.487v-1.911c0-.457.081-.552.373-.552h1.69c.658 0 .971.19 1.164 1.084h.384l-.121-1.668h-6.09v.414h.415c.586 0 .789.244.789.763v4.237c0 .575-.183.775-.881.775h-.101v.414h5.574l.101-1.539h-.383c-.102.722-.233.956-.699.956m9.3846-4.8301c0-.595.263-.776.799-.776h.142v-.413h-3.298v.413h.182c.516 0 .779.181.779.797v4.172c0 .563-.192.806-.789.806h-.172v.414h3.298v-.414h-.172c-.658 0-.769-.264-.769-.848v-1.911c.404.052.881.329 1.335.807.334.349.982 1.21.982 1.603 0 .224-.182.349-.608.349h-.111v.414h2.701v-.414c-.607-.041-.829-.094-1.103-.382-.455-.478-.92-1.495-1.668-2.091.293-.16.758-.712 1.072-1.136l.88-1.179c.516-.699.911-.987 1.538-.987v-.413h-3.45v.413c.425 0 .708.064.708.288 0 .221-.93 1.326-1.568 1.994-.323.341-.466.383-.708.383zm10.9129 5.4135h2.62v-.414h-.07c-.81 0-.931-.37-.931-.881v-2.643c0-2.369-1.639-2.813-2.843-2.813-1.821 0-2.975.827-2.975 2.452v3.163c0 .532-.141.722-.708.722h-.171v.414h3.166v-.414h-.172c-.425 0-.718-.2-.718-.722v-3.163c0-1.296.91-1.741 1.831-1.741 1.325 0 1.983.786 1.983 1.953v2.581c0 .753-.203 1.092-.83 1.092h-.182zm5.2178-5.3286c0-.647.192-.861 1.001-.861v-.413h-2.447v.413h.06c.617 0 .769.234.769.669v4.873c-.223.159-.496.234-.81.234v.414h2.085l4.127-4.523v3.207c0 .763-.151.902-.961.902h-.101v.414h2.611v-.414h-.102c-.627 0-.829-.139-.829-.542v-5.68h-.557l-4.846 5.32zm12.1881 4.7452h-2.215v-2.389h1.638c.557 0 .759.202.759.765h.404v-2.114h-.404c0 .573-.132.765-.911.765h-1.486v-1.911c0-.457.08-.552.373-.552h1.69c.658 0 .971.19 1.164 1.084h.384l-.121-1.668h-6.091v.414h.415c.587 0 .79.244.79.763v4.237c0 .575-.183.775-.881.775h-.101v.414h5.574l.101-1.539h-.384c-.102.722-.233.956-.698.956m4.2869-4.7452c0-.647.192-.861 1.002-.861v-.413h-2.449v.413h.061c.617 0 .769.234.769.669v4.873c-.223.159-.496.234-.81.234v.414h2.085l4.127-4.523v3.207c0 .763-.152.902-.961.902h-.101v.414h2.61v-.414h-.101c-.628 0-.829-.139-.829-.542v-5.68h-.557l-4.846 5.32zm15.0602 1.4957c-.536-.01-.718-.18-.718-.668v-1.582c-.728-.35-1.77-.669-2.64-.669-2.56 0-3.794 1.498-3.794 3.535 0 1.943 1.528 3.376 3.683 3.376 1.041 0 1.85-.37 2.194-.37.152 0 .233.041.304.136h.253v-1.942h-.405c-.273 1.084-1.042 1.721-2.093 1.721-1.438 0-2.429-1.19-2.429-2.911 0-1.741 1.042-3.036 2.449-3.036.384 0 .809.107 1.082.277v1.465c0 .531-.212.647-1.244.668v.403h3.358zm3.3563-.3184l-.425-1.242c-.182-.541-.173-.796.799-.796h.131v-.414h-2.681v.414h.153c.484 0 .737.234.991.977l1.729 5.065-.11.307h1.497l2.023-5.393c.263-.701.486-.914 1.012-.956v-.414h-3.289v.414h.355c.616 0 .708.287.506.807l-.476 1.231zm1.051 3.069l-.849-2.484h1.781zm11.8133-4.3312c0-.595.263-.776.799-.776h.142v-.413h-3.298v.413h.182c.516 0 .779.181.779.797v4.172c0 .563-.193.806-.79.806h-.171v.414h3.298v-.414h-.172c-.658 0-.769-.264-.769-.848v-1.911c.404.052.88.329 1.336.807.333.349.98 1.21.98 1.603 0 .224-.182.349-.606.349h-.111v.414h2.701v-.414c-.608-.041-.83-.094-1.104-.382-.455-.478-.92-1.495-1.669-2.091.294-.16.759-.712 1.073-1.136l.88-1.179c.516-.699.91-.987 1.538-.987v-.413h-3.451v.413c.425 0 .709.064.709.288 0 .221-.931 1.326-1.568 1.994-.324.341-.466.383-.708.383zm6.0169 5.4135h3.216v-.414h-.171c-.546 0-.769-.244-.769-.796v-4.203c0-.522.171-.776.789-.776h.151v-.414h-3.216v.414h.141c.536 0 .739.265.739.732v4.247c0 .552-.183.796-.749.796h-.131zm11.0943-5.3926c0-.616.222-.797.88-.797h.304v-.413h-3.44v.413h.152c.556 0 .708.129.708.606v4.553c0 .491-.152.617-.708.617h-.223v.414c.395.022.941.084 1.639.117.668.032 1.326.052 1.609.052 1.952 0 2.782-.987 2.782-2.081 0-1.231-.991-2.017-2.549-2.017-.365 0-.729.033-1.154.108zm0 2.006c.213-.053.435-.074.729-.074.94 0 1.466.573 1.466 1.613 0 .977-.546 1.551-1.477 1.551-.242 0-.475-.022-.718-.074zm9.9727 3.3866h2.621v-.414h-.071c-.809 0-.931-.37-.931-.881v-2.643c0-2.369-1.64-2.813-2.843-2.813-1.821 0-2.975.827-2.975 2.452v3.163c0 .532-.141.722-.707.722h-.173v.414h3.168v-.414h-.173c-.425 0-.718-.2-.718-.722v-3.163c0-1.296.91-1.741 1.831-1.741 1.325 0 1.983.786 1.983 1.953v2.581c0 .753-.202 1.092-.83 1.092h-.182zm6.0686-5.4131c0-.542.222-.776.799-.776h.302v-.414h-3.539v.414h.161c.617 0 .881.159.881.776v4.193c0 .508-.132.806-.81.806h-.213v.414c.506.033.891.053 1.306.085.566.043 1.294.074 1.659.074 1.487 0 2.297-.201 2.802-.732.334-.35.485-.753.485-1.21 0-.807-.556-1.444-1.497-1.709.668-.585 1.022-1.423 1.741-2.178.414-.434.697-.562 1.335-.625v-.415c-.223-.01-.324-.01-.627-.01-1.254 0-1.771.192-2.246.69-.506.532-1.093 1.647-1.74 2.23h-.799zm0 2.058h.393c1.225 0 1.934.393 1.934 1.531 0 1.125-.82 1.528-1.802 1.528h-.525zm10.9125 2.7717h-2.216v-2.389h1.639c.556 0 .759.202.759.765h.405v-2.114h-.405c0 .573-.132.765-.911.765h-1.487v-1.911c0-.457.081-.552.375-.552h1.69c.656 0 .971.19 1.163 1.084h.384l-.122-1.668h-6.089v.414h.414c.587 0 .789.244.789.763v4.237c0 .575-.182.775-.88.775h-.101v.414h5.574l.101-1.539h-.385c-.101.722-.232.956-.697.956m7.7169-5.6059c.536 0 .758.244.758.817v1.891h-3.338v-1.911c0-.563.212-.797.778-.797h.153v-.414h-3.248v.414h.172c.516 0 .749.244.749.776v4.224c0 .531-.222.775-.759.775h-.162v.414h3.248v-.414h-.143c-.526 0-.788-.179-.788-.775v-1.666h3.338v1.635c0 .595-.222.806-.809.806h-.091v.414h3.237v-.414h-.182c-.516 0-.759-.2-.759-.775v-4.203c0-.553.192-.797.78-.797h.161v-.414h-3.237v.414zm9.2939 6.1893h2.62v-.414h-.071c-.81 0-.93-.37-.93-.881v-2.643c0-2.369-1.64-2.813-2.844-2.813-1.821 0-2.974.827-2.974 2.452v3.163c0 .532-.141.722-.708.722h-.173v.414h3.168v-.414h-.172c-.425 0-.719-.2-.719-.722v-3.163c0-1.296.911-1.741 1.832-1.741 1.325 0 1.982.786 1.982 1.953v2.581c0 .753-.202 1.092-.83 1.092h-.181zm6.0673-5.4131c0-.542.223-.776.8-.776h.303v-.414h-3.541v.414h.162c.617 0 .88.159.88.776v4.193c0 .508-.131.806-.809.806h-.214v.414c.508.033.892.053 1.306.085.567.043 1.295.074 1.66.074 1.487 0 2.296-.201 2.801-.732.335-.35.486-.753.486-1.21 0-.807-.557-1.444-1.497-1.709.667-.585 1.022-1.423 1.741-2.178.414-.434.697-.562 1.334-.625v-.415c-.222-.01-.324-.01-.627-.01-1.254 0-1.77.192-2.246.69-.505.532-1.092 1.647-1.739 2.23h-.8zm0 2.058h.394c1.225 0 1.933.393 1.933 1.531 0 1.125-.82 1.528-1.801 1.528h-.526zm10.5184 3.5572c2.114 0 3.612-1.392 3.612-3.375 0-1.891-1.387-3.579-3.804-3.579-2.327 0-3.683 1.56-3.683 3.345 0 2.102 1.62 3.609 3.875 3.609m.041-6.497c1.405 0 2.063 1.274 2.063 2.739 0 1.709-.809 3.301-2.347 3.301-1.285 0-2.125-1.04-2.125-2.643 0-2.027.982-3.397 2.409-3.397m7.2199 2.1436l-.426-1.242c-.181-.541-.172-.796.8-.796h.131v-.414h-2.681v.414h.153c.484 0 .738.234.991.977l1.729 5.065-.11.307h1.497l2.023-5.393c.263-.701.485-.914 1.012-.956v-.414h-3.289v.414h.355c.616 0 .708.287.506.807l-.475 1.231zm1.051 3.069l-.849-2.484h1.781z" fill="#18468b"/></g><path d="M162.8466 18.4154h4.9165" fill="none" stroke="#18468b" stroke-width=".2111"/><g clip-path="url(#d)" transform="matrix(.99563 0 0 -.99563 -276.4563 413.1715)"><path d="M333.4452 375.6942v-5.24c0-.902.2-1.275.375-1.524.526-.702 1.349-.832 1.932-.832 2.286 0 2.286 1.793 2.286 2.401v5.195h1.137v-5.216c0-.458-.012-1.409-.692-2.25-.832-1.043-2.12-1.173-2.731-1.173-.795 0-2.201.224-2.987 1.349-.257.375-.493.868-.493 2.128v5.162z" fill="#18468b"/></g><path d="M62.8026 39.1184h1.6209l4.1418 6.9685v-6.9685h1.0743v8.427H68.146l-4.283-7.1534v7.1536h-1.0603zm8.9294.0002h1.1639v8.427h-1.164zm6.6598 8.4264h-1.2844l-2.9968-8.427h1.2943l2.3935 7.2014 2.519-7.2014h1.1778zm4.2263-8.4266h5.2838v.9937H83.784v2.6275h3.9198v.9757H83.784v2.8017h4.2115v1.0285h-5.3774z" fill="#18468b"/><g clip-path="url(#e)" transform="matrix(.99563 0 0 -.99563 -276.4563 413.1715)"><path d="M367.7864 375.6938h3.024c.435 0 1.323 0 1.946-.399.631-.4.935-1.044.935-1.725 0-.597-.222-1.123-.595-1.501-.363-.361-.741-.478-.998-.551.809-.209 1.172-.571 1.289-1.627.117-.997.198-1.723.528-2.66h-1.255c-.187.562-.305 1.595-.387 2.241-.14 1.23-.432 1.581-1.851 1.581h-1.477v-3.822h-1.159zm1.137-3.646h1.85c.131 0 .799 0 1.116.187.162.095.572.399.572 1.101 0 1.373-1.216 1.373-1.688 1.373h-1.85zm7.4065-2.3439c.022-.586.093-1.675 2.04-1.675 1.759 0 1.98 1.089 1.98 1.512 0 .946-.762 1.137-1.947 1.427-1.287.319-1.863.46-2.295.752-.691.47-.88 1.102-.88 1.664 0 1.721 1.63 2.474 3.223 2.474.564 0 1.701-.097 2.38-.835.467-.514.491-1.089.514-1.441h-1.216c-.06 1.056-.952 1.288-1.784 1.288-1.17 0-1.874-.526-1.874-1.371 0-.748.492-1.004 1.523-1.252 2.017-.515 2.24-.564 2.731-.89.786-.516.844-1.337.844-1.689 0-1.5-1.172-2.636-3.341-2.636-.644 0-1.957.105-2.622.962-.484.622-.494 1.3-.494 1.71z" fill="#18468b"/></g><path d="M105.0349 39.1186h1.1629v8.427h-1.163zm5.2836 8.4264v-7.4334h-2.8216v-.9936h6.8011v.9936h-2.8236v7.4334zm7.8532-3.3117l-3.2885-5.1145h1.4446l2.4871 4.1328 2.52-4.1328h1.3062l-3.2905 5.1723v3.2537h-1.1789z" fill="#18468b"/><g clip-path="url(#f)" transform="matrix(.99563 0 0 -.99563 -276.4563 413.1715)"><path d="M405.6186 374.7783c.88.949 2.043 1.137 2.824 1.137 2.345 0 3.822-1.5 3.822-4.373 0-2.248-.903-4.511-3.915-4.511-2.883 0-3.819 2.051-3.819 4.372 0 .962.164 2.38 1.088 3.375m.892-5.977c.479-.597 1.208-.772 1.873-.772.693 0 1.384.187 1.878.772.689.842.762 2.182.762 2.753 0 1.922-.634 3.376-2.569 3.376-2.143 0-2.693-1.722-2.693-3.457 0-.928.163-1.945.749-2.672" fill="#18468b"/></g><path d="M135.5265 39.1184h5.016v.9937h-3.8262v2.6275h3.6042v.9757h-3.6042v3.8302h-1.1898zm9.7299 0h1.6229l4.1408 6.9685v-6.9685h1.0753v8.427H150.6l-4.2813-7.1535v7.1536h-1.0623zm8.5083 0h5.2858v.9937h-4.119v2.6275h3.9189v.9757h-3.9188v2.8017h4.2125v1.0285h-5.3794zm7.6194 0l1.821 6.9336 2.0082-6.9336h1.4457l1.9007 6.9924 1.9136-6.9924h1.143l-2.496 8.427h-1.2974l-1.9475-7.2003-2.0858 7.2004h-1.2615l-2.3925-8.427zm13.9781 7.2583l4.8677-6.2287h-4.7383v-1.0294h6.1262v1.1559l-4.9095 6.2426h4.9911v1.0275h-6.3372zm7.6106-7.2583h5.2838v.9937h-4.1189v2.6275h3.9198v.9757h-3.9198v2.8017h4.2125v1.0285h-5.3774zm9.8988-.0001h1.2426l3.412 8.427h-1.2774l-.909-2.1954h-3.9079l-.911 2.1954h-1.2017zm-1.0663 5.2897h3.185l-1.5532-4.1338zm6.8157-5.2896h1.154v7.3866h3.9228v1.0405h-5.0767zm9.2997-.0001h1.2465l3.408 8.427h-1.2704l-.909-2.1954h-3.9108l-.909 2.1954h-1.2018zm-1.0594 5.2897h3.185l-1.5571-4.1338zm6.6626-5.2896h1.6199l4.1458 6.9685v-6.9685h1.0703v8.427h-1.4925l-4.2832-7.1535v7.1536h-1.0603z" fill="#18468b"/><g clip-path="url(#g)" transform="matrix(.99563 0 0 -.99563 -276.4563 413.1715)"><path d="M500.7804 375.6941h2.447c1.137 0 2.47 0 3.414-1.104.746-.88 1.039-2.037 1.039-3.199 0-1.826-.758-2.951-1.403-3.468-.837-.692-1.877-.692-3.12-.692h-2.377zm1.168-7.502h1.152c.807 0 1.651.047 2.211.468 1.082.811 1.118 2.193 1.118 2.684 0 .317-.024 1.759-.825 2.639-.539.595-1.216.737-2.247.737h-1.409z" fill="#18468b"/></g><path d="M54.3542 33.4286H228.998v-.7706H54.3542z" fill="#18468b"/></svg>